<svg width="86" height="13" viewBox="0 0 86 13" fill="none" xmlns="http://www.w3.org/2000/svg">
<path d="M2.70952 12.8352L3.59713 10.0872H7.91251L8.80012 12.8352H11.5096L7.38696 0.783787H4.12851L0 12.8352H2.70952ZM4.23947 8.0982L5.71102 3.53773H5.80445L7.276 8.0982H4.23947Z" fill="#585CC6"/>
<path d="M23.1034 5.00296C22.7706 2.2196 20.68 0.619019 17.9121 0.619019C14.753 0.619019 12.3412 2.86689 12.3412 6.8095C12.3412 10.7403 14.7121 13 17.9121 13C20.9779 13 22.829 10.9463 23.1034 8.72784L20.5457 8.71607C20.3063 10.0048 19.3019 10.7462 17.953 10.7462C16.1369 10.7462 14.9048 9.3869 14.9048 6.8095C14.9048 4.30271 16.1194 2.87278 17.9705 2.87278C19.3545 2.87278 20.353 3.67895 20.5457 5.00296H23.1034Z" fill="#585CC6"/>
<path d="M26.9175 12.8352L27.8051 10.0872H32.1205L33.0081 12.8352H35.7177L31.595 0.783787H28.3365L24.208 12.8352H26.9175ZM28.4475 8.0982L29.919 3.53773H30.0125L31.484 8.0982H28.4475Z" fill="#585CC6"/>
<path d="M41.561 12.8352C45.2048 12.8352 47.4122 10.5638 47.4122 6.79773C47.4122 3.04343 45.2048 0.783787 41.596 0.783787H37.3215V12.8352H41.561ZM39.85 10.6521V2.96693H41.4617C43.7041 2.96693 44.8895 4.12029 44.8895 6.79773C44.8895 9.48694 43.7041 10.6521 41.4559 10.6521H39.85Z" fill="#585CC6"/>
<path d="M49.4496 12.8352H57.5315V10.7344H51.9781V7.85694H57.0935V5.75617H51.9781V2.88455H57.5081V0.783787H49.4496V12.8352Z" fill="#585CC6"/>
<path d="M59.6828 0.783787V12.8352H62.1354V4.96177H62.2347L65.3296 12.7764H66.9997L70.0946 4.99119H70.1939V12.8352H72.6465V0.783787H69.5282L66.2347 8.88084H66.0946L62.8011 0.783787H59.6828Z" fill="#585CC6"/>
<path d="M74.1934 0.783787L78.5555 8.57484V12.8352H81.0665V8.57484L85.4286 0.783787H82.5965L79.8694 5.9739H79.7526L77.0256 0.783787H74.1934Z" fill="#585CC6"/>
</svg>
