<svg width="24" height="17" viewBox="0 0 24 17" fill="none" xmlns="http://www.w3.org/2000/svg">
<path d="M23.08 12L22 5.90997C21.94 5.35997 21.51 4.90997 20.69 4.44997C20.5307 4.20655 20.3202 4.00081 20.0733 3.84709C19.8263 3.69338 19.5487 3.59539 19.26 3.55997C18.9928 3.11727 18.5681 2.79193 18.0711 2.64913C17.5741 2.50634 17.0415 2.55664 16.58 2.78997C16.3698 2.5082 16.089 2.28681 15.766 2.14811C15.443 2.00942 15.0891 1.95832 14.74 1.99997C14.5597 1.68502 14.2971 1.42505 13.9804 1.24792C13.6636 1.0708 13.3047 0.983198 12.942 0.994501C12.5792 1.0058 12.2264 1.11559 11.9213 1.31209C11.6162 1.50859 11.3703 1.7844 11.21 2.10997C11.0551 2.05367 10.8939 2.01672 10.73 1.99997C10.5549 1.69454 10.3022 1.44076 9.99756 1.26427C9.69291 1.08779 9.34708 0.994845 8.995 0.994845C8.64292 0.994845 8.29709 1.08779 7.99244 1.26427C7.68779 1.44076 7.43514 1.69454 7.26 1.99997C6.95499 1.95934 6.64473 1.98964 6.35334 2.0885C6.06196 2.18737 5.79731 2.35213 5.58 2.56997C5.3914 2.51703 5.19578 2.49342 5 2.49997C4.46957 2.49997 3.96086 2.71068 3.58579 3.08576C3.21071 3.46083 3 3.96954 3 4.49997C3 4.49997 3 4.55997 3 4.59997C2.74419 4.71936 2.52025 4.89756 2.34645 5.12001C2.17266 5.34247 2.05394 5.60288 2 5.87997L0.92 12C0.652344 12.1518 0.427563 12.3691 0.266671 12.6314C0.105779 12.8937 0.0140294 13.1926 0 13.5C0.0107031 13.7353 0.0726173 13.9655 0.181425 14.1745C0.290234 14.3835 0.443317 14.5662 0.63 14.71C0.67081 14.7629 0.721815 14.8071 0.78 14.84C2.6 16.26 7.32 17 12 17C16.68 17 21.4 16.26 23.22 14.83C23.2782 14.7971 23.3292 14.7529 23.37 14.7C23.5554 14.5573 23.7078 14.3762 23.8165 14.169C23.9253 13.9619 23.9879 13.7336 24 13.5C23.986 13.1926 23.8942 12.8937 23.7333 12.6314C23.5724 12.3691 23.3477 12.1518 23.08 12ZM3.78 5.30997C3.87452 5.25265 3.94738 5.16562 3.98719 5.06248C4.027 4.95935 4.0315 4.84594 4 4.73997C3.99037 4.66026 3.99037 4.57968 4 4.49997C4.0003 4.32556 4.04621 4.15425 4.13318 4.00307C4.22015 3.85188 4.34515 3.72607 4.49577 3.63812C4.64639 3.55018 4.81739 3.50316 4.9918 3.50173C5.16621 3.5003 5.33796 3.54451 5.49 3.62997C5.60208 3.69336 5.7343 3.71106 5.85911 3.67939C5.98392 3.64773 6.0917 3.56913 6.16 3.45997C6.28518 3.26474 6.47432 3.11909 6.69505 3.04794C6.91578 2.9768 7.15438 2.98459 7.37 3.06997C7.43302 3.09007 7.49941 3.09746 7.56531 3.09172C7.6312 3.08597 7.69531 3.06721 7.75391 3.03652C7.8125 3.00583 7.86443 2.96381 7.90667 2.91291C7.94891 2.862 7.98064 2.80322 8 2.73997C8.05803 2.53716 8.17871 2.35789 8.34478 2.2278C8.51084 2.09772 8.7138 2.02349 8.92461 2.01572C9.13542 2.00795 9.34328 2.06705 9.51847 2.18456C9.69366 2.30207 9.82721 2.47198 9.9 2.66997C9.94767 2.76979 10.0229 2.8539 10.1168 2.91237C10.2107 2.97084 10.3194 3.00124 10.43 2.99997C10.6895 2.99571 10.9406 3.09253 11.13 3.26997C11.1981 3.34489 11.2873 3.39738 11.3859 3.42048C11.4845 3.44359 11.5877 3.43623 11.682 3.39938C11.7763 3.36253 11.8572 3.29793 11.914 3.21411C11.9708 3.13029 12.0008 3.03121 12 2.92997C11.9748 2.66475 12.056 2.40039 12.2257 2.19504C12.3954 1.98969 12.6398 1.86017 12.905 1.83497C13.1702 1.80978 13.4346 1.89097 13.6399 2.06069C13.8453 2.23041 13.9748 2.47475 14 2.73997C14.0188 2.80796 14.0518 2.8712 14.0968 2.92553C14.1417 2.97987 14.1977 3.02407 14.261 3.05524C14.3243 3.08641 14.3934 3.10384 14.4639 3.10637C14.5344 3.10891 14.6046 3.09651 14.67 3.06997C14.7934 3.02179 14.9251 2.99859 15.0575 3.00173C15.1898 3.00486 15.3203 3.03426 15.4412 3.08822C15.5622 3.14217 15.6712 3.21962 15.762 3.31605C15.8527 3.41249 15.9235 3.52599 15.97 3.64997C15.9989 3.73125 16.0483 3.80367 16.1135 3.86019C16.1787 3.91671 16.2574 3.95541 16.3419 3.97252C16.4265 3.98963 16.514 3.98458 16.596 3.95785C16.6781 3.93112 16.7518 3.88362 16.81 3.81997C16.9274 3.69529 17.0749 3.60286 17.2383 3.55153C17.4017 3.5002 17.5755 3.49169 17.7431 3.52682C17.9107 3.56195 18.0665 3.63954 18.1956 3.75216C18.3246 3.86477 18.4225 4.00864 18.48 4.16997C18.5269 4.26825 18.6006 4.35133 18.6926 4.40969C18.7845 4.46805 18.8911 4.49934 19 4.49997C19.1843 4.49679 19.3659 4.54461 19.5247 4.63813C19.6835 4.73166 19.8134 4.86727 19.9 5.02997C19.9524 5.12267 20.0329 5.19624 20.13 5.23997C20.79 5.55997 21.03 5.83997 21.03 5.99997C21.03 6.67997 17.85 7.99997 12.03 7.99997C6.21 7.99997 3 6.67997 3 5.99997C3 5.85997 3.2 5.59997 3.78 5.30997Z" fill="#585CC6"/>
<path d="M7.5 6C7.63261 6 7.75979 5.94732 7.85355 5.85355C7.94732 5.75979 8 5.63261 8 5.5C8 5.36739 8.05268 5.24021 8.14645 5.14645C8.24021 5.05268 8.36739 5 8.5 5C8.63261 5 8.75979 4.94732 8.85355 4.85355C8.94732 4.75978 9 4.63261 9 4.5C9 4.36739 8.94732 4.24021 8.85355 4.14645C8.75979 4.05268 8.63261 4 8.5 4C8.10218 4 7.72064 4.15804 7.43934 4.43934C7.15804 4.72064 7 5.10217 7 5.5C7 5.63261 7.05268 5.75979 7.14645 5.85355C7.24021 5.94732 7.36739 6 7.5 6ZM14.5 6C14.6326 6 14.7598 5.94732 14.8536 5.85355C14.9473 5.75979 15 5.63261 15 5.5C15 5.36739 15.0527 5.24021 15.1464 5.14645C15.2402 5.05268 15.3674 5 15.5 5C15.6326 5 15.7598 4.94732 15.8536 4.85355C15.9473 4.75978 16 4.63261 16 4.5C16 4.36739 15.9473 4.24021 15.8536 4.14645C15.7598 4.05268 15.6326 4 15.5 4C15.1022 4 14.7206 4.15804 14.4393 4.43934C14.158 4.72064 14 5.10217 14 5.5C14 5.63261 14.0527 5.75979 14.1464 5.85355C14.2402 5.94732 14.3674 6 14.5 6ZM17.5 6C17.6326 6 17.7598 6.05268 17.8536 6.14645C17.9473 6.24021 18 6.36739 18 6.5C18 6.63261 18.0527 6.75978 18.1464 6.85355C18.2402 6.94732 18.3674 7 18.5 7C18.6326 7 18.7598 6.94732 18.8536 6.85355C18.9473 6.75978 19 6.63261 19 6.5C19 6.10217 18.842 5.72064 18.5607 5.43934C18.2794 5.15803 17.8978 5 17.5 5C17.3674 5 17.2402 5.05268 17.1464 5.14645C17.0527 5.24021 17 5.36739 17 5.5C17 5.63261 17.0527 5.75979 17.1464 5.85355C17.2402 5.94732 17.3674 6 17.5 6ZM10.5 7C10.6326 7 10.7598 6.94732 10.8536 6.85355C10.9473 6.75978 11 6.63261 11 6.5C11 6.36739 11.0527 6.24021 11.1464 6.14645C11.2402 6.05268 11.3674 6 11.5 6C11.6326 6 11.7598 5.94732 11.8536 5.85355C11.9473 5.75979 12 5.63261 12 5.5C12 5.36739 11.9473 5.24021 11.8536 5.14645C11.7598 5.05268 11.6326 5 11.5 5C11.1022 5 10.7206 5.15803 10.4393 5.43934C10.158 5.72064 10 6.10217 10 6.5C10 6.63261 10.0527 6.75978 10.1464 6.85355C10.2402 6.94732 10.3674 7 10.5 7Z" fill="#585CC6"/>
</svg>
