<svg width="438" height="174" viewBox="0 0 438 174" fill="none" xmlns="http://www.w3.org/2000/svg">
<g clip-path="url(#clip0_264_74)">
<rect y="42" width="438" height="132" rx="32" fill="#F64B3C"/>
<path d="M140.368 78.944C142.736 78.944 144.56 78.432 146.352 77.76V88H149.936V64H146.352V74.496C144.464 75.264 142.832 75.616 140.944 75.616C137.328 75.616 135.44 74.176 135.44 70.432V64H131.856V71.36C131.856 76.192 134.704 78.944 140.368 78.944ZM158.08 88H161.408V74.976H166.656V72.096H152.832V74.976H158.08V88ZM175.579 71.808C170.779 71.808 167.227 75.296 167.227 80.032C167.227 84.8 170.779 88.288 175.579 88.288C180.411 88.288 183.931 84.8 183.931 80.032C183.931 75.296 180.411 71.808 175.579 71.808ZM175.579 74.848C178.491 74.848 180.475 76.928 180.475 80.032C180.475 83.136 178.491 85.248 175.579 85.248C172.667 85.248 170.683 83.136 170.683 80.032C170.683 76.928 172.667 74.848 175.579 74.848ZM185.326 80.672V78.176H193.07V80.672H185.326ZM199.127 88H202.455V74.976H207.703V72.096H193.879V74.976H199.127V88ZM216.625 71.808C211.825 71.808 208.273 75.296 208.273 80.032C208.273 84.8 211.825 88.288 216.625 88.288C221.457 88.288 224.977 84.8 224.977 80.032C224.977 75.296 221.457 71.808 216.625 71.808ZM216.625 74.848C219.537 74.848 221.521 76.928 221.521 80.032C221.521 83.136 219.537 85.248 216.625 85.248C213.713 85.248 211.729 83.136 211.729 80.032C211.729 76.928 213.713 74.848 216.625 74.848ZM233.5 88H236.796V81.152H244.156V88H247.484V72.096H244.156V78.272H236.796V72.096H233.5V88ZM258.357 88.288C262.197 88.288 264.949 86.368 265.813 83.2L262.645 82.624C262.069 84.32 260.693 85.376 258.357 85.376C255.701 85.376 253.813 83.904 253.493 80.96H265.813C265.877 80.448 265.941 79.904 265.941 79.424C265.941 74.912 262.741 71.808 258.165 71.808C253.461 71.808 250.069 75.296 250.069 80.032C250.069 84.832 253.237 88.288 258.357 88.288ZM258.165 74.592C260.501 74.592 262.101 76 262.421 78.304H253.621C254.165 75.84 256.053 74.592 258.165 74.592ZM277.969 88H281.297V74.976H286.545V72.096H272.721V74.976H277.969V88ZM298.279 88H301.255V78.272C301.255 74.016 298.567 71.808 294.471 71.808C290.663 71.808 288.135 73.76 287.367 76.8L290.535 77.376C291.015 75.488 292.391 74.624 294.439 74.624C296.327 74.624 297.671 75.488 297.991 77.44L293.703 78.432C290.151 79.264 287.463 80.544 287.463 83.712C287.463 86.592 289.607 88.288 292.551 88.288C294.919 88.288 296.871 87.2 298.119 85.376L298.279 88ZM290.855 83.488C290.855 82.112 291.975 81.504 293.799 81.056L298.055 80V80.384C298.055 83.776 295.591 85.504 293.127 85.504C291.719 85.504 290.855 84.768 290.855 83.488ZM304.775 72.096V88H308.071V81.344H309.959L315.335 88H319.335L312.679 79.552L318.919 72.096H314.983L310.055 78.144H308.071V72.096H304.775ZM322.346 88.32C323.69 88.32 324.65 87.424 324.65 86.08C324.65 84.704 323.69 83.808 322.346 83.808C321.002 83.808 320.01 84.704 320.01 86.08C320.01 87.424 321.002 88.32 322.346 88.32ZM329.132 88.32C330.476 88.32 331.436 87.424 331.436 86.08C331.436 84.704 330.476 83.808 329.132 83.808C327.788 83.808 326.796 84.704 326.796 86.08C326.796 87.424 327.788 88.32 329.132 88.32ZM335.918 88.32C337.262 88.32 338.222 87.424 338.222 86.08C338.222 84.704 337.262 83.808 335.918 83.808C334.574 83.808 333.582 84.704 333.582 86.08C333.582 87.424 334.574 88.32 335.918 88.32Z" fill="white"/>
<path d="M137.42 116.498V112.2H138.4V122H137.42V117.422H132.1V122H131.12V112.2H132.1V116.498H137.42ZM143.73 114.832C144.775 114.832 145.61 115.201 146.236 115.938C146.88 116.666 147.202 117.529 147.202 118.528C147.202 118.575 147.192 118.719 147.174 118.962H141.028C141.121 119.662 141.42 120.222 141.924 120.642C142.428 121.062 143.058 121.272 143.814 121.272C144.878 121.272 145.629 120.875 146.068 120.082L146.88 120.558C146.572 121.062 146.147 121.459 145.606 121.748C145.074 122.028 144.472 122.168 143.8 122.168C142.698 122.168 141.802 121.823 141.112 121.132C140.421 120.441 140.076 119.564 140.076 118.5C140.076 117.445 140.416 116.573 141.098 115.882C141.779 115.182 142.656 114.832 143.73 114.832ZM143.73 115.728C143.002 115.728 142.39 115.943 141.896 116.372C141.41 116.801 141.121 117.366 141.028 118.066H146.25C146.147 117.319 145.862 116.745 145.396 116.344C144.91 115.933 144.355 115.728 143.73 115.728ZM152.171 115H158.051V122H157.127V115.896H153.095V122H152.171V115ZM165.871 121.118C165.153 121.818 164.285 122.168 163.267 122.168C162.231 122.168 161.359 121.818 160.649 121.118C159.94 120.409 159.585 119.536 159.585 118.5C159.585 117.464 159.94 116.596 160.649 115.896C161.359 115.187 162.231 114.832 163.267 114.832C164.294 114.832 165.162 115.187 165.871 115.896C166.59 116.596 166.949 117.464 166.949 118.5C166.949 119.527 166.59 120.399 165.871 121.118ZM161.307 120.474C161.839 121.006 162.493 121.272 163.267 121.272C164.042 121.272 164.695 121.006 165.227 120.474C165.759 119.923 166.025 119.265 166.025 118.5C166.025 117.725 165.759 117.072 165.227 116.54C164.695 115.999 164.042 115.728 163.267 115.728C162.493 115.728 161.839 115.999 161.307 116.54C160.775 117.072 160.509 117.725 160.509 118.5C160.509 119.265 160.775 119.923 161.307 120.474ZM168.95 115H173.962V122H173.038V115.896H169.874V119.018C169.874 120.185 169.65 120.987 169.202 121.426C168.764 121.865 168.157 122.056 167.382 122V121.132C167.924 121.188 168.32 121.057 168.572 120.74C168.824 120.423 168.95 119.849 168.95 119.018V115ZM178.691 120.866L180.959 115H181.939L178.943 122.644C178.663 123.353 178.271 123.899 177.767 124.282C177.273 124.674 176.722 124.847 176.115 124.8V123.932C176.955 124.035 177.595 123.549 178.033 122.476L178.215 122.042L175.079 115H176.059L178.691 120.866ZM187.592 118.486V115H188.516V122H187.592V119.34C187.051 119.62 186.384 119.76 185.59 119.76C184.666 119.76 183.966 119.55 183.49 119.13C183.014 118.701 182.776 118.071 182.776 117.24V115H183.7V117.24C183.7 117.819 183.85 118.239 184.148 118.5C184.456 118.761 184.928 118.892 185.562 118.892C186.272 118.892 186.948 118.757 187.592 118.486ZM191.404 120.39L195.576 115H196.36V122H195.436V116.61L191.264 122H190.48V115H191.404V120.39ZM199.042 115H204.054V122H203.13V115.896H199.966V119.018C199.966 120.185 199.742 120.987 199.294 121.426C198.855 121.865 198.249 122.056 197.474 122V121.132C198.015 121.188 198.412 121.057 198.664 120.74C198.916 120.423 199.042 119.849 199.042 119.018V115ZM211.877 121.118C211.159 121.818 210.291 122.168 209.273 122.168C208.237 122.168 207.365 121.818 206.655 121.118C205.946 120.409 205.591 119.536 205.591 118.5C205.591 117.464 205.946 116.596 206.655 115.896C207.365 115.187 208.237 114.832 209.273 114.832C210.3 114.832 211.168 115.187 211.877 115.896C212.596 116.596 212.955 117.464 212.955 118.5C212.955 119.527 212.596 120.399 211.877 121.118ZM207.313 120.474C207.845 121.006 208.499 121.272 209.273 121.272C210.048 121.272 210.701 121.006 211.233 120.474C211.765 119.923 212.031 119.265 212.031 118.5C212.031 117.725 211.765 117.072 211.233 116.54C210.701 115.999 210.048 115.728 209.273 115.728C208.499 115.728 207.845 115.999 207.313 116.54C206.781 117.072 206.515 117.725 206.515 118.5C206.515 119.265 206.781 119.923 207.313 120.474ZM217.763 122.168C216.709 122.168 215.831 121.818 215.131 121.118C214.431 120.399 214.081 119.527 214.081 118.5C214.081 117.464 214.431 116.596 215.131 115.896C215.831 115.187 216.709 114.832 217.763 114.832C218.454 114.832 219.075 115 219.625 115.336C220.176 115.663 220.577 116.106 220.829 116.666L220.073 117.1C219.887 116.68 219.583 116.349 219.163 116.106C218.753 115.854 218.286 115.728 217.763 115.728C216.989 115.728 216.335 115.999 215.803 116.54C215.271 117.072 215.005 117.725 215.005 118.5C215.005 119.265 215.271 119.923 215.803 120.474C216.335 121.006 216.989 121.272 217.763 121.272C218.277 121.272 218.739 121.151 219.149 120.908C219.569 120.665 219.896 120.329 220.129 119.9L220.899 120.348C220.61 120.908 220.185 121.351 219.625 121.678C219.065 122.005 218.445 122.168 217.763 122.168ZM223.15 117.66H225.068C225.712 117.66 226.263 117.865 226.72 118.276C227.177 118.677 227.406 119.195 227.406 119.83C227.406 120.474 227.177 120.997 226.72 121.398C226.281 121.799 225.731 122 225.068 122H222.226V115H223.15V117.66ZM223.15 121.104H225.068C225.469 121.104 225.805 120.987 226.076 120.754C226.347 120.511 226.482 120.203 226.482 119.83C226.482 119.457 226.347 119.153 226.076 118.92C225.805 118.677 225.469 118.556 225.068 118.556H223.15V121.104ZM238.168 121.118C237.45 121.818 236.582 122.168 235.564 122.168C234.528 122.168 233.656 121.818 232.946 121.118C232.237 120.409 231.882 119.536 231.882 118.5C231.882 117.464 232.237 116.596 232.946 115.896C233.656 115.187 234.528 114.832 235.564 114.832C236.591 114.832 237.459 115.187 238.168 115.896C238.887 116.596 239.246 117.464 239.246 118.5C239.246 119.527 238.887 120.399 238.168 121.118ZM233.604 120.474C234.136 121.006 234.79 121.272 235.564 121.272C236.339 121.272 236.992 121.006 237.524 120.474C238.056 119.923 238.322 119.265 238.322 118.5C238.322 117.725 238.056 117.072 237.524 116.54C236.992 115.999 236.339 115.728 235.564 115.728C234.79 115.728 234.136 115.999 233.604 116.54C233.072 117.072 232.806 117.725 232.806 118.5C232.806 119.265 233.072 119.923 233.604 120.474ZM239.679 115H245.559V115.896H243.081V122H242.157V115.896H239.679V115ZM246.685 115H252.565V122H251.641V115.896H247.609V122H246.685V115ZM258.271 114.832C259.27 114.832 260.119 115.187 260.819 115.896C261.528 116.605 261.883 117.473 261.883 118.5C261.883 119.527 261.528 120.395 260.819 121.104C260.119 121.813 259.27 122.168 258.271 122.168C257.03 122.168 256.087 121.655 255.443 120.628V124.8H254.519V115H255.443V116.372C256.087 115.345 257.03 114.832 258.271 114.832ZM256.241 120.474C256.773 121.006 257.426 121.272 258.201 121.272C258.976 121.272 259.629 121.006 260.161 120.474C260.693 119.923 260.959 119.265 260.959 118.5C260.959 117.725 260.693 117.072 260.161 116.54C259.629 115.999 258.976 115.728 258.201 115.728C257.426 115.728 256.773 115.999 256.241 116.54C255.709 117.072 255.443 117.725 255.443 118.5C255.443 119.265 255.709 119.923 256.241 120.474ZM269.439 116.372V115H270.363V122H269.439V120.628C268.795 121.655 267.853 122.168 266.611 122.168C265.613 122.168 264.759 121.813 264.049 121.104C263.349 120.395 262.999 119.527 262.999 118.5C262.999 117.473 263.349 116.605 264.049 115.896C264.759 115.187 265.613 114.832 266.611 114.832C267.853 114.832 268.795 115.345 269.439 116.372ZM264.721 120.474C265.253 121.006 265.907 121.272 266.681 121.272C267.456 121.272 268.109 121.006 268.641 120.474C269.173 119.923 269.439 119.265 269.439 118.5C269.439 117.725 269.173 117.072 268.641 116.54C268.109 115.999 267.456 115.728 266.681 115.728C265.907 115.728 265.253 115.999 264.721 116.54C264.189 117.072 263.923 117.725 263.923 118.5C263.923 119.265 264.189 119.923 264.721 120.474ZM276.772 118.402C277.537 118.682 277.92 119.228 277.92 120.04C277.92 120.619 277.724 121.09 277.332 121.454C276.949 121.818 276.413 122 275.722 122H272.32V115H275.442C276.114 115 276.637 115.173 277.01 115.518C277.393 115.863 277.584 116.316 277.584 116.876C277.584 117.576 277.313 118.085 276.772 118.402ZM275.442 115.896H273.244V118.024H275.442C276.254 118.024 276.66 117.66 276.66 116.932C276.66 116.605 276.553 116.353 276.338 116.176C276.133 115.989 275.834 115.896 275.442 115.896ZM273.244 121.104H275.722C276.133 121.104 276.445 121.006 276.66 120.81C276.884 120.614 276.996 120.339 276.996 119.984C276.996 119.648 276.884 119.387 276.66 119.2C276.445 119.013 276.133 118.92 275.722 118.92H273.244V121.104ZM280.244 120.39L284.416 115H285.2V122H284.276V116.61L280.104 122H279.32V115H280.244V120.39ZM286.314 115H292.194V115.896H289.716V122H288.792V115.896H286.314V115ZM294.244 117.66H296.162C296.806 117.66 297.357 117.865 297.814 118.276C298.271 118.677 298.5 119.195 298.5 119.83C298.5 120.474 298.271 120.997 297.814 121.398C297.375 121.799 296.825 122 296.162 122H293.32V115H294.244V117.66ZM294.244 121.104H296.162C296.563 121.104 296.899 120.987 297.17 120.754C297.441 120.511 297.576 120.203 297.576 119.83C297.576 119.457 297.441 119.153 297.17 118.92C296.899 118.677 296.563 118.556 296.162 118.556H294.244V121.104ZM309.262 121.118C308.543 121.818 307.675 122.168 306.658 122.168C305.622 122.168 304.749 121.818 304.04 121.118C303.331 120.409 302.976 119.536 302.976 118.5C302.976 117.464 303.331 116.596 304.04 115.896C304.749 115.187 305.622 114.832 306.658 114.832C307.685 114.832 308.553 115.187 309.262 115.896C309.981 116.596 310.34 117.464 310.34 118.5C310.34 119.527 309.981 120.399 309.262 121.118ZM304.698 120.474C305.23 121.006 305.883 121.272 306.658 121.272C307.433 121.272 308.086 121.006 308.618 120.474C309.15 119.923 309.416 119.265 309.416 118.5C309.416 117.725 309.15 117.072 308.618 116.54C308.086 115.999 307.433 115.728 306.658 115.728C305.883 115.728 305.23 115.999 304.698 116.54C304.166 117.072 303.9 117.725 303.9 118.5C303.9 119.265 304.166 119.923 304.698 120.474ZM310.773 115H316.653V115.896H314.175V122H313.251V115.896H310.773V115ZM321.117 118.402C321.929 118.71 322.335 119.27 322.335 120.082C322.335 120.67 322.107 121.165 321.649 121.566C321.211 121.967 320.567 122.168 319.717 122.168C318.299 122.168 317.375 121.608 316.945 120.488L317.729 120.026C318.028 120.857 318.691 121.272 319.717 121.272C320.249 121.272 320.665 121.16 320.963 120.936C321.262 120.703 321.411 120.399 321.411 120.026C321.411 119.69 321.29 119.424 321.047 119.228C320.805 119.023 320.478 118.92 320.067 118.92H319.045V118.024H319.787C320.189 118.024 320.501 117.926 320.725 117.73C320.959 117.525 321.075 117.245 321.075 116.89C321.075 116.554 320.935 116.279 320.655 116.064C320.385 115.84 320.025 115.728 319.577 115.728C318.709 115.728 318.126 116.078 317.827 116.778L317.057 116.33C317.524 115.331 318.364 114.832 319.577 114.832C320.324 114.832 320.912 115.028 321.341 115.42C321.78 115.803 321.999 116.274 321.999 116.834C321.999 117.553 321.705 118.075 321.117 118.402ZM324.664 117.66H326.582C327.226 117.66 327.776 117.865 328.234 118.276C328.691 118.677 328.92 119.195 328.92 119.83C328.92 120.474 328.691 120.997 328.234 121.398C327.795 121.799 327.244 122 326.582 122H323.74V115H324.664V117.66ZM329.9 122V115H330.824V122H329.9ZM324.664 121.104H326.582C326.983 121.104 327.319 120.987 327.59 120.754C327.86 120.511 327.996 120.203 327.996 119.83C327.996 119.457 327.86 119.153 327.59 118.92C327.319 118.677 326.983 118.556 326.582 118.556H324.664V121.104ZM337.243 118.402C338.008 118.682 338.391 119.228 338.391 120.04C338.391 120.619 338.195 121.09 337.803 121.454C337.42 121.818 336.883 122 336.193 122H332.791V115H335.913C336.585 115 337.107 115.173 337.481 115.518C337.863 115.863 338.055 116.316 338.055 116.876C338.055 117.576 337.784 118.085 337.243 118.402ZM335.913 115.896H333.715V118.024H335.913C336.725 118.024 337.131 117.66 337.131 116.932C337.131 116.605 337.023 116.353 336.809 116.176C336.603 115.989 336.305 115.896 335.913 115.896ZM333.715 121.104H336.193C336.603 121.104 336.916 121.006 337.131 120.81C337.355 120.614 337.467 120.339 337.467 119.984C337.467 119.648 337.355 119.387 337.131 119.2C336.916 119.013 336.603 118.92 336.193 118.92H333.715V121.104ZM341.054 121.37C341.054 121.585 340.979 121.767 340.83 121.916C340.68 122.065 340.498 122.14 340.284 122.14C340.069 122.14 339.887 122.065 339.738 121.916C339.588 121.767 339.514 121.585 339.514 121.37C339.514 121.155 339.588 120.973 339.738 120.824C339.887 120.675 340.069 120.6 340.284 120.6C340.498 120.6 340.68 120.675 340.83 120.824C340.979 120.973 341.054 121.155 341.054 121.37ZM131.12 134.2H138.12V144H137.14V135.124H132.1V144H131.12V134.2ZM146.088 143.118C145.37 143.818 144.502 144.168 143.484 144.168C142.448 144.168 141.576 143.818 140.866 143.118C140.157 142.409 139.802 141.536 139.802 140.5C139.802 139.464 140.157 138.596 140.866 137.896C141.576 137.187 142.448 136.832 143.484 136.832C144.511 136.832 145.379 137.187 146.088 137.896C146.807 138.596 147.166 139.464 147.166 140.5C147.166 141.527 146.807 142.399 146.088 143.118ZM141.524 142.474C142.056 143.006 142.71 143.272 143.484 143.272C144.259 143.272 144.912 143.006 145.444 142.474C145.976 141.923 146.242 141.265 146.242 140.5C146.242 139.725 145.976 139.072 145.444 138.54C144.912 137.999 144.259 137.728 143.484 137.728C142.71 137.728 142.056 137.999 141.524 138.54C140.992 139.072 140.726 139.725 140.726 140.5C140.726 141.265 140.992 141.923 141.524 142.474ZM148.712 137H154.592V144H153.668V137.896H149.636V144H148.712V137ZM160.298 136.832C161.297 136.832 162.146 137.187 162.846 137.896C163.556 138.605 163.91 139.473 163.91 140.5C163.91 141.527 163.556 142.395 162.846 143.104C162.146 143.813 161.297 144.168 160.298 144.168C159.057 144.168 158.114 143.655 157.47 142.628V146.8H156.546V137H157.47V138.372C158.114 137.345 159.057 136.832 160.298 136.832ZM158.268 142.474C158.8 143.006 159.454 143.272 160.228 143.272C161.003 143.272 161.656 143.006 162.188 142.474C162.72 141.923 162.986 141.265 162.986 140.5C162.986 139.725 162.72 139.072 162.188 138.54C161.656 137.999 161.003 137.728 160.228 137.728C159.454 137.728 158.8 137.999 158.268 138.54C157.736 139.072 157.47 139.725 157.47 140.5C157.47 141.265 157.736 141.923 158.268 142.474ZM171.313 143.118C170.594 143.818 169.726 144.168 168.709 144.168C167.673 144.168 166.8 143.818 166.091 143.118C165.381 142.409 165.027 141.536 165.027 140.5C165.027 139.464 165.381 138.596 166.091 137.896C166.8 137.187 167.673 136.832 168.709 136.832C169.735 136.832 170.603 137.187 171.313 137.896C172.031 138.596 172.391 139.464 172.391 140.5C172.391 141.527 172.031 142.399 171.313 143.118ZM166.749 142.474C167.281 143.006 167.934 143.272 168.709 143.272C169.483 143.272 170.137 143.006 170.669 142.474C171.201 141.923 171.467 141.265 171.467 140.5C171.467 139.725 171.201 139.072 170.669 138.54C170.137 137.999 169.483 137.728 168.709 137.728C167.934 137.728 167.281 137.999 166.749 138.54C166.217 139.072 165.951 139.725 165.951 140.5C165.951 141.265 166.217 141.923 166.749 142.474ZM177.045 144.168C176.046 144.168 175.206 143.837 174.525 143.174C173.853 142.502 173.517 141.634 173.517 140.57C173.517 139.375 173.694 138.461 174.049 137.826C174.404 137.182 175.122 136.599 176.205 136.076C176.55 135.917 176.821 135.796 177.017 135.712C177.344 135.581 177.6 135.469 177.787 135.376C178.599 135.003 179.01 134.541 179.019 133.99L179.747 134.41C179.7 134.643 179.626 134.853 179.523 135.04C179.402 135.245 179.28 135.409 179.159 135.53C179.047 135.651 178.87 135.782 178.627 135.922C178.468 136.015 178.277 136.118 178.053 136.23L177.353 136.524L176.695 136.804C176.051 137.084 175.57 137.378 175.253 137.686C174.945 137.985 174.726 138.377 174.595 138.862C174.894 138.461 175.286 138.157 175.771 137.952C176.256 137.737 176.746 137.63 177.241 137.63C178.174 137.63 178.944 137.938 179.551 138.554C180.167 139.161 180.475 139.94 180.475 140.892C180.475 141.835 180.148 142.619 179.495 143.244C178.851 143.86 178.034 144.168 177.045 144.168ZM175.225 142.558C175.71 143.015 176.317 143.244 177.045 143.244C177.773 143.244 178.37 143.025 178.837 142.586C179.313 142.138 179.551 141.573 179.551 140.892C179.551 140.201 179.327 139.637 178.879 139.198C178.44 138.75 177.852 138.526 177.115 138.526C176.452 138.526 175.85 138.736 175.309 139.156C174.768 139.557 174.497 140.108 174.497 140.808C174.497 141.517 174.74 142.101 175.225 142.558ZM184.379 142.866L186.647 137H187.627L184.631 144.644C184.351 145.353 183.959 145.899 183.455 146.282C182.96 146.674 182.41 146.847 181.803 146.8V145.932C182.643 146.035 183.282 145.549 183.721 144.476L183.903 144.042L180.767 137H181.747L184.379 142.866ZM193.504 135.88H189.864V135.068H193.504V135.88ZM189.668 142.39L193.84 137H194.624V144H193.7V138.61L189.528 144H188.744V137H189.668V142.39ZM195.738 137H201.618V137.896H199.14V144H198.216V137.896H195.738V137ZM205.704 136.832C206.75 136.832 207.585 137.201 208.21 137.938C208.854 138.666 209.176 139.529 209.176 140.528C209.176 140.575 209.167 140.719 209.148 140.962H203.002C203.096 141.662 203.394 142.222 203.898 142.642C204.402 143.062 205.032 143.272 205.788 143.272C206.852 143.272 207.604 142.875 208.042 142.082L208.854 142.558C208.546 143.062 208.122 143.459 207.58 143.748C207.048 144.028 206.446 144.168 205.774 144.168C204.673 144.168 203.777 143.823 203.086 143.132C202.396 142.441 202.05 141.564 202.05 140.5C202.05 139.445 202.391 138.573 203.072 137.882C203.754 137.182 204.631 136.832 205.704 136.832ZM205.704 137.728C204.976 137.728 204.365 137.943 203.87 138.372C203.385 138.801 203.096 139.366 203.002 140.066H208.224C208.122 139.319 207.837 138.745 207.37 138.344C206.885 137.933 206.33 137.728 205.704 137.728ZM217.38 136.832C218.425 136.832 219.261 137.201 219.886 137.938C220.53 138.666 220.852 139.529 220.852 140.528C220.852 140.575 220.843 140.719 220.824 140.962H214.678C214.771 141.662 215.07 142.222 215.574 142.642C216.078 143.062 216.708 143.272 217.464 143.272C218.528 143.272 219.279 142.875 219.718 142.082L220.53 142.558C220.222 143.062 219.797 143.459 219.256 143.748C218.724 144.028 218.122 144.168 217.45 144.168C216.349 144.168 215.453 143.823 214.762 143.132C214.071 142.441 213.726 141.564 213.726 140.5C213.726 139.445 214.067 138.573 214.748 137.882C215.429 137.182 216.307 136.832 217.38 136.832ZM217.38 137.728C216.652 137.728 216.041 137.943 215.546 138.372C215.061 138.801 214.771 139.366 214.678 140.066H219.9C219.797 139.319 219.513 138.745 219.046 138.344C218.561 137.933 218.005 137.728 217.38 137.728ZM231.702 137V143.104H232.682V145.876H231.758V144H222.322V137H223.246V143.104H226.55V137H227.474V143.104H230.778V137H231.702ZM237.04 136.832C238.086 136.832 238.921 137.201 239.546 137.938C240.19 138.666 240.512 139.529 240.512 140.528C240.512 140.575 240.503 140.719 240.484 140.962H234.338C234.432 141.662 234.73 142.222 235.234 142.642C235.738 143.062 236.368 143.272 237.124 143.272C238.188 143.272 238.94 142.875 239.378 142.082L240.19 142.558C239.882 143.062 239.458 143.459 238.916 143.748C238.384 144.028 237.782 144.168 237.11 144.168C236.009 144.168 235.113 143.823 234.422 143.132C233.732 142.441 233.386 141.564 233.386 140.5C233.386 139.445 233.727 138.573 234.408 137.882C235.09 137.182 235.967 136.832 237.04 136.832ZM237.04 137.728C236.312 137.728 235.701 137.943 235.206 138.372C234.721 138.801 234.432 139.366 234.338 140.066H239.56C239.458 139.319 239.173 138.745 238.706 138.344C238.221 137.933 237.666 137.728 237.04 137.728ZM249.234 136.832C250.233 136.832 251.082 137.187 251.782 137.896C252.491 138.605 252.846 139.473 252.846 140.5C252.846 141.527 252.491 142.395 251.782 143.104C251.082 143.813 250.233 144.168 249.234 144.168C247.993 144.168 247.05 143.655 246.406 142.628V146.8H245.482V137H246.406V138.372C247.05 137.345 247.993 136.832 249.234 136.832ZM247.204 142.474C247.736 143.006 248.389 143.272 249.164 143.272C249.939 143.272 250.592 143.006 251.124 142.474C251.656 141.923 251.922 141.265 251.922 140.5C251.922 139.725 251.656 139.072 251.124 138.54C250.592 137.999 249.939 137.728 249.164 137.728C248.389 137.728 247.736 137.999 247.204 138.54C246.672 139.072 246.406 139.725 246.406 140.5C246.406 141.265 246.672 141.923 247.204 142.474ZM260.402 138.372V137H261.326V144H260.402V142.628C259.758 143.655 258.816 144.168 257.574 144.168C256.576 144.168 255.722 143.813 255.012 143.104C254.312 142.395 253.962 141.527 253.962 140.5C253.962 139.473 254.312 138.605 255.012 137.896C255.722 137.187 256.576 136.832 257.574 136.832C258.816 136.832 259.758 137.345 260.402 138.372ZM255.684 142.474C256.216 143.006 256.87 143.272 257.644 143.272C258.419 143.272 259.072 143.006 259.604 142.474C260.136 141.923 260.402 141.265 260.402 140.5C260.402 139.725 260.136 139.072 259.604 138.54C259.072 137.999 258.419 137.728 257.644 137.728C256.87 137.728 256.216 137.999 255.684 138.54C255.152 139.072 254.886 139.725 254.886 140.5C254.886 141.265 255.152 141.923 255.684 142.474ZM266.895 140.402C267.707 140.71 268.113 141.27 268.113 142.082C268.113 142.67 267.884 143.165 267.427 143.566C266.988 143.967 266.344 144.168 265.495 144.168C264.076 144.168 263.152 143.608 262.723 142.488L263.507 142.026C263.805 142.857 264.468 143.272 265.495 143.272C266.027 143.272 266.442 143.16 266.741 142.936C267.039 142.703 267.189 142.399 267.189 142.026C267.189 141.69 267.067 141.424 266.825 141.228C266.582 141.023 266.255 140.92 265.845 140.92H264.823V140.024H265.565C265.966 140.024 266.279 139.926 266.503 139.73C266.736 139.525 266.853 139.245 266.853 138.89C266.853 138.554 266.713 138.279 266.433 138.064C266.162 137.84 265.803 137.728 265.355 137.728C264.487 137.728 263.903 138.078 263.605 138.778L262.835 138.33C263.301 137.331 264.141 136.832 265.355 136.832C266.101 136.832 266.689 137.028 267.119 137.42C267.557 137.803 267.777 138.274 267.777 138.834C267.777 139.553 267.483 140.075 266.895 140.402ZM270.497 141.34H269.797L269.587 137V134.2H270.707V137L270.497 141.34ZM270.917 143.37C270.917 143.585 270.842 143.767 270.693 143.916C270.544 144.065 270.362 144.14 270.147 144.14C269.932 144.14 269.75 144.065 269.601 143.916C269.452 143.767 269.377 143.585 269.377 143.37C269.377 143.155 269.452 142.973 269.601 142.824C269.75 142.675 269.932 142.6 270.147 142.6C270.362 142.6 270.544 142.675 270.693 142.824C270.842 142.973 270.917 143.155 270.917 143.37Z" fill="white"/>
<circle cx="33.9425" cy="123.829" r="6.82918" fill="#C81912"/>
<circle cx="79" cy="114" r="13" fill="#C81912"/>
<path fill-rule="evenodd" clip-rule="evenodd" d="M32.5511 136.439C32.4191 135.778 31.9357 135.243 31.2918 135.044V135.044C30.5686 134.821 29.7827 135.065 29.3124 135.658L26.6097 139.065C24.7585 141.398 21.7904 142.502 18.8235 142.237C11.5519 141.589 4.04597 142.17 -3.42021 144.141C-37.9518 153.255 -58.5567 188.637 -49.4425 223.168C-40.3282 257.7 -4.9463 278.305 29.5853 269.191C64.1169 260.077 84.7218 224.695 75.6076 190.163C70.3813 170.362 56.5177 155.14 39.13 147.475C36.2342 146.198 34.0008 143.697 33.3809 140.593L32.5511 136.439Z" fill="#C81912"/>
<circle cx="21.5475" cy="91.5475" r="3.49096" transform="rotate(-22.0902 21.5475 91.5475)" fill="#C81912"/>
</g>
<path fill-rule="evenodd" clip-rule="evenodd" d="M67.8052 67.6794C68.1341 67.4706 68.4931 67.3124 68.8662 67.2006C83.0115 62.962 93.3197 49.8448 93.3197 34.32C93.3197 15.3656 77.9541 0 58.9997 0C40.0453 0 24.6797 15.3656 24.6797 34.32C24.6797 47.8227 32.4775 59.5042 43.8155 65.1068C43.8284 65.1132 43.8231 65.1326 43.8089 65.1315V65.1315C43.7997 65.1308 43.7927 65.1396 43.7955 65.1483L46.9035 74.9903C47.6944 77.4949 50.6435 78.5705 52.8611 77.1631L67.8052 67.6794Z" fill="#C81912"/>
<path d="M68.8137 27.638C69.6421 26.8096 69.6421 25.4664 68.8137 24.638L68.3622 24.1866C67.5338 23.3581 66.1907 23.3581 65.3623 24.1866L59.0002 30.5486L52.6381 24.1866C51.8097 23.3581 50.4666 23.3581 49.6382 24.1866L49.1867 24.638C48.3583 25.4664 48.3583 26.8096 49.1867 27.638L55.5488 34L49.1867 40.3621C48.3583 41.1905 48.3583 42.5336 49.1867 43.362L49.6382 43.8135C50.4666 44.6419 51.8097 44.6419 52.6381 43.8135L59.0002 37.4514L65.3623 43.8135C66.1907 44.6419 67.5338 44.6419 68.3622 43.8135L68.8137 43.362C69.6421 42.5336 69.6421 41.1905 68.8137 40.3621L62.4516 34L68.8137 27.638Z" fill="white"/>
<defs>
<clipPath id="clip0_264_74">
<rect y="42" width="438" height="132" rx="32" fill="white"/>
</clipPath>
</defs>
</svg>
