<svg width="20" height="20" viewBox="0 0 20 20" fill="none" xmlns="http://www.w3.org/2000/svg">
<path fill-rule="evenodd" clip-rule="evenodd" d="M19.75 9.75C19.75 15.1348 15.3848 19.5 10 19.5C4.61522 19.5 0.25 15.1348 0.25 9.75C0.25 4.36522 4.61522 0 10 0C15.3848 0 19.75 4.36522 19.75 9.75ZM15.075 8.57438C15.8618 8.57438 16.5004 9.21297 16.5004 9.99981C16.5004 10.5814 16.1469 11.0831 15.6794 11.3112C15.7022 11.4481 15.7136 11.5849 15.7136 11.7331C15.7136 13.9226 13.1706 15.6902 10.0232 15.6902C6.87585 15.6902 4.33287 13.9226 4.33287 11.7331C4.33287 11.5849 4.34427 11.4367 4.36708 11.2998C3.86533 11.0717 3.52322 10.5814 3.52322 9.99981C3.52322 9.21297 4.16182 8.57438 4.94866 8.57438C5.32497 8.57438 5.67848 8.73402 5.92936 8.9735C6.91006 8.25508 8.26708 7.81034 9.78375 7.76473L10.5022 4.36648C10.525 4.29806 10.5592 4.24104 10.6162 4.20683C10.6732 4.17262 10.7416 4.16122 10.8101 4.17262L13.1706 4.67437C13.3302 4.33227 13.6723 4.1042 14.0715 4.1042C14.6302 4.1042 15.0864 4.56034 15.0864 5.11911C15.0864 5.67788 14.6302 6.13402 14.0715 6.13402C13.5241 6.13402 13.0794 5.70069 13.0566 5.16473L10.9469 4.71999L10.2969 7.76473C11.7794 7.82174 13.125 8.27788 14.0943 8.9735C14.3452 8.72262 14.6873 8.57438 15.075 8.57438ZM7.76533 9.99981C7.20655 9.99981 6.75041 10.456 6.75041 11.0147C6.75041 11.5735 7.20655 12.0296 7.76533 12.0296C8.3241 12.0296 8.78024 11.5735 8.78024 11.0147C8.78024 10.456 8.3241 9.99981 7.76533 9.99981ZM10.0118 14.4358C10.3995 14.4358 11.7223 14.3902 12.418 13.6946C12.5206 13.5919 12.5206 13.4323 12.4408 13.3182C12.3381 13.2156 12.1671 13.2156 12.0644 13.3182C11.6197 13.7516 10.696 13.9112 10.0232 13.9112C9.35041 13.9112 8.41533 13.7516 7.98199 13.3182C7.87936 13.2156 7.70831 13.2156 7.60568 13.3182C7.50304 13.4209 7.50304 13.5919 7.60568 13.6946C8.28989 14.3788 9.6241 14.4358 10.0118 14.4358ZM11.2206 11.0147C11.2206 11.5735 11.6767 12.0296 12.2355 12.0296C12.7943 12.0296 13.2504 11.5735 13.2504 11.0147C13.2504 10.456 12.7943 9.99981 12.2355 9.99981C11.6767 9.99981 11.2206 10.456 11.2206 11.0147Z" fill="#585CC6"/>
</svg>
