<svg width="86" height="33" viewBox="0 0 86 33" fill="none" xmlns="http://www.w3.org/2000/svg">
<path fill-rule="evenodd" clip-rule="evenodd" d="M69.9616 32.1894H62.2314V1.07302H69.8828V18.2848C70.9652 18.5933 71.6646 18.4839 72.2393 17.5113C73.3923 15.5628 74.6696 13.6821 75.9415 11.8014C76.049 11.6351 76.1899 11.4917 76.3564 11.3802C76.5229 11.2686 76.7106 11.1913 76.9091 11.1527H84.979L78.4928 20.5889C78.284 20.8182 78.1706 21.1149 78.1755 21.4209C78.1805 21.7269 78.3025 22.0202 78.5185 22.2431C80.609 25.115 83.3777 29.2913 85.4286 32.1894H79.6013C79.6013 32.1894 76.522 32.3203 75.1822 29.6444C74.157 27.9431 73.2569 26.6018 72.2042 25.1183C72.0768 24.9388 72.0674 24.8135 71.8257 24.5862C71.6646 24.4348 71.4747 24.3159 71.2658 24.2363C71.0575 24.1567 70.8347 24.1179 70.6106 24.1222C70.3864 24.1266 70.1655 24.174 69.9607 24.2617L69.9616 32.1894ZM58.2394 32.1894H50.5385V30.9004C50.534 27.4308 50.534 23.9608 50.5385 20.4904C50.5385 18.531 49.944 17.4949 48.5182 17.0212C47.6946 16.7752 46.8152 16.7684 45.988 17.0017C45.1604 17.2349 44.4215 17.698 43.8617 18.334C43.647 18.6859 43.5454 19.092 43.57 19.5004C43.5497 23.1458 43.5587 26.7901 43.5587 30.4409V32.1894H35.8567V11.1724H42.581L42.7162 13.3102C43.0316 13.0585 43.2219 12.9163 43.4021 12.7631C44.7468 11.5686 46.4228 10.7836 48.2221 10.5054C50.0219 10.227 51.8657 10.4677 53.526 11.1975C54.9198 11.7091 56.1165 12.6271 56.9527 13.8254C57.7885 15.0237 58.2223 16.4438 58.1944 17.891C58.1944 17.891 58.2394 27.3986 58.2394 32.1894ZM19.9379 32.1894H12.344V6.01956e-08H19.9379V32.1894ZM0.640866 11.1582H8.23925V32.1894H0.640866V11.1582ZM24.1212 11.1582H31.7274V32.1894H24.1212V11.1582ZM4.47047 8.20419C3.8974 8.2366 3.32355 8.15523 2.78394 7.96504C2.24433 7.77489 1.75027 7.4799 1.33193 7.09809C0.913586 6.71632 0.579725 6.25568 0.350733 5.74443C0.12174 5.23314 0.00241168 4.68188 3.618e-05 4.1243C-0.00233932 3.56673 0.112287 3.01455 0.336915 2.50144C0.561543 1.98833 0.89147 1.52506 1.30654 1.13991C1.72162 0.754768 2.21314 0.455817 2.75111 0.261311C3.28909 0.0668051 3.86222 -0.0191603 4.43554 0.00863054C7.12303 0.00097215 8.88013 1.59061 8.89026 4.03692C8.92928 4.60485 8.84062 5.17426 8.6304 5.70558C8.42022 6.2369 8.09357 6.71748 7.67309 7.11391C7.2526 7.51039 6.74836 7.81325 6.19533 8.00152C5.6423 8.18979 5.05376 8.25896 4.47047 8.20419ZM27.8922 8.20419C27.0692 8.15492 26.2791 7.87289 25.619 7.3929C24.9589 6.91295 24.4578 6.2559 24.1773 5.50278C23.8968 4.74966 23.8492 3.93326 24.0403 3.15418C24.2315 2.37509 24.653 1.66734 25.253 1.11801C25.8531 0.568689 26.6054 0.201814 27.4174 0.0625519C28.2294 -0.0767098 29.0655 0.0177224 29.823 0.33423C30.5804 0.650739 31.226 1.17548 31.6803 1.84387C32.1345 2.51226 32.3776 3.29512 32.3796 4.09602C32.4039 4.66418 32.302 5.23073 32.0809 5.75722C31.8597 6.28371 31.5244 6.75776 31.0978 7.14722C30.6713 7.53664 30.1633 7.83234 29.6087 8.01417C29.054 8.19596 28.4655 8.25967 27.8832 8.20088L27.8922 8.20419Z" fill="#585CC6"/>
</svg>
