<svg viewBox="0 0 11 19" fill="none" xmlns="http://www.w3.org/2000/svg">
          <path
            fill-rule="evenodd"
            clip-rule="evenodd"
            d="M5.45915 1C3.01031 1 0.999947 2.88025 1 5.20028C1.00002 7.33964 2.71488 9.08217 4.90121 9.34388V13.8968H2.30321V14.9715H4.90121V18.03H6.01709V14.9715H8.61072V13.8968H6.01709V9.34388C8.20371 9.08217 9.92046 7.33964 9.92048 5.20028C9.92053 2.88025 7.90798 1 5.45915 1ZM8.8046 5.20028C8.80464 3.47651 7.32053 2.07473 5.45915 2.07473C3.59777 2.07473 2.11584 3.47651 2.11588 5.20028C2.11589 6.92404 3.59781 8.32372 5.45915 8.32372C7.32049 8.32372 8.80459 6.92404 8.8046 5.20028Z"
            fill="#585CC6"
            stroke="#585CC6"
          />
        </svg>