<svg width="438" height="174" viewBox="0 0 438 174" fill="none" xmlns="http://www.w3.org/2000/svg">
<g clip-path="url(#clip0_260_10)">
<g clip-path="url(#clip1_260_10)">
<rect y="42" width="438" height="132" rx="32" fill="#B5FFA2"/>
<circle cx="20.607" cy="108.295" r="9.29547" fill="#7DED61"/>
<circle cx="80.099" cy="146.717" r="3.71819" fill="#7DED61"/>
<path d="M79.4438 110.025C82.4971 117.548 78.8737 126.122 71.3507 129.175C70.5208 129.512 69.6781 129.768 68.8315 129.946C64.1204 130.937 58.8591 132.284 56.3382 136.386C53.3951 141.174 55.0036 147.393 59.3496 150.957C68.015 158.064 75.0268 167.432 79.3829 178.619C92.9059 213.348 75.7149 252.464 40.9856 265.987C6.25636 279.51 -32.8599 262.319 -46.3829 227.59C-59.9059 192.861 -42.7149 153.745 -7.98562 140.222C7.18342 134.315 23.1894 134.268 37.5341 138.982C42.7299 140.69 48.6536 139.072 51.5174 134.413L52.5823 132.68C54.694 129.244 53.7172 124.819 52.2006 121.082C49.1473 113.559 52.7707 104.985 60.2937 101.932C67.8167 98.8789 76.3906 102.502 79.4438 110.025Z" fill="#7DED61"/>
<path d="M136.176 88H139.92L151.056 64H147.312L140.912 77.792L134.096 64H130.16L139.056 81.824L136.176 88ZM148.378 80.032C148.378 84.8 151.834 88.288 156.506 88.288C160.474 88.288 163.482 85.824 164.026 82.528L160.73 81.952C160.314 83.936 158.81 85.248 156.506 85.248C153.754 85.248 151.834 83.168 151.834 80.032C151.834 76.864 153.786 74.848 156.538 74.848C158.65 74.848 160.122 76.064 160.602 77.984L163.93 77.44C163.194 74.048 160.41 71.808 156.538 71.808C151.866 71.808 148.378 75.264 148.378 80.032ZM166.256 88H169.552V74.976H176.688V88H179.984V72.096H166.256V88ZM190.895 88.288C194.735 88.288 197.487 86.368 198.351 83.2L195.183 82.624C194.607 84.32 193.231 85.376 190.895 85.376C188.239 85.376 186.351 83.904 186.031 80.96H198.351C198.415 80.448 198.479 79.904 198.479 79.424C198.479 74.912 195.279 71.808 190.703 71.808C185.999 71.808 182.607 75.296 182.607 80.032C182.607 84.832 185.775 88.288 190.895 88.288ZM190.703 74.592C193.039 74.592 194.639 76 194.959 78.304H186.159C186.703 75.84 188.591 74.592 190.703 74.592ZM201.203 88H222.259V72.096H218.931V85.12H213.363V72.096H210.067V85.12H204.499V72.096H201.203V88ZM226.115 88H229.411V81.152H236.771V88H240.099V72.096H236.771V78.272H229.411V72.096H226.115V88ZM251.036 71.808C246.236 71.808 242.684 75.296 242.684 80.032C242.684 84.8 246.236 88.288 251.036 88.288C255.868 88.288 259.388 84.8 259.388 80.032C259.388 75.296 255.868 71.808 251.036 71.808ZM251.036 74.848C253.948 74.848 255.932 76.928 255.932 80.032C255.932 83.136 253.948 85.248 251.036 85.248C248.124 85.248 246.14 83.136 246.14 80.032C246.14 76.928 248.124 74.848 251.036 74.848ZM263.056 64L263.6 80.48H266.448L266.96 64H263.056ZM265.008 88.32C266.384 88.32 267.312 87.424 267.312 86.08C267.312 84.704 266.384 83.808 265.008 83.808C263.664 83.808 262.704 84.704 262.704 86.08C262.704 87.424 263.664 88.32 265.008 88.32Z" fill="#333333"/>
<path d="M135.698 122.168C134.205 122.168 132.977 121.678 132.016 120.698C131.045 119.709 130.56 118.509 130.56 117.1C130.56 115.691 131.045 114.491 132.016 113.502C132.977 112.522 134.205 112.032 135.698 112.032C136.594 112.032 137.42 112.251 138.176 112.69C138.932 113.119 139.52 113.703 139.94 114.44L139.072 114.944C138.764 114.347 138.307 113.871 137.7 113.516C137.093 113.161 136.426 112.984 135.698 112.984C134.466 112.984 133.467 113.381 132.702 114.174C131.927 114.977 131.54 115.952 131.54 117.1C131.54 118.248 131.927 119.223 132.702 120.026C133.467 120.819 134.466 121.216 135.698 121.216C136.426 121.216 137.093 121.039 137.7 120.684C138.307 120.329 138.764 119.853 139.072 119.256L139.94 119.746C139.539 120.483 138.955 121.071 138.19 121.51C137.425 121.949 136.594 122.168 135.698 122.168ZM141.412 115H147.292V122H146.368V115.896H142.336V122H141.412V115ZM155.266 116.372V115H156.19V122H155.266V120.628C154.622 121.655 153.679 122.168 152.438 122.168C151.439 122.168 150.585 121.813 149.876 121.104C149.176 120.395 148.826 119.527 148.826 118.5C148.826 117.473 149.176 116.605 149.876 115.896C150.585 115.187 151.439 114.832 152.438 114.832C153.679 114.832 154.622 115.345 155.266 116.372ZM150.548 120.474C151.08 121.006 151.733 121.272 152.508 121.272C153.282 121.272 153.936 121.006 154.468 120.474C155 119.923 155.266 119.265 155.266 118.5C155.266 117.725 155 117.072 154.468 116.54C153.936 115.999 153.282 115.728 152.508 115.728C151.733 115.728 151.08 115.999 150.548 116.54C150.016 117.072 149.75 117.725 149.75 118.5C149.75 119.265 150.016 119.923 150.548 120.474ZM161.408 122.168C160.353 122.168 159.476 121.818 158.776 121.118C158.076 120.399 157.726 119.527 157.726 118.5C157.726 117.464 158.076 116.596 158.776 115.896C159.476 115.187 160.353 114.832 161.408 114.832C162.099 114.832 162.719 115 163.27 115.336C163.821 115.663 164.222 116.106 164.474 116.666L163.718 117.1C163.531 116.68 163.228 116.349 162.808 116.106C162.397 115.854 161.931 115.728 161.408 115.728C160.633 115.728 159.98 115.999 159.448 116.54C158.916 117.072 158.65 117.725 158.65 118.5C158.65 119.265 158.916 119.923 159.448 120.474C159.98 121.006 160.633 121.272 161.408 121.272C161.921 121.272 162.383 121.151 162.794 120.908C163.214 120.665 163.541 120.329 163.774 119.9L164.544 120.348C164.255 120.908 163.83 121.351 163.27 121.678C162.71 122.005 162.089 122.168 161.408 122.168ZM166.795 120.39L170.967 115H171.751V122H170.827V116.61L166.655 122H165.871V115H166.795V120.39ZM176.813 122.168C175.814 122.168 174.974 121.837 174.293 121.174C173.621 120.502 173.285 119.634 173.285 118.57C173.285 117.375 173.462 116.461 173.817 115.826C174.171 115.182 174.89 114.599 175.973 114.076C176.318 113.917 176.589 113.796 176.785 113.712C177.111 113.581 177.368 113.469 177.555 113.376C178.367 113.003 178.777 112.541 178.787 111.99L179.515 112.41C179.468 112.643 179.393 112.853 179.291 113.04C179.169 113.245 179.048 113.409 178.927 113.53C178.815 113.651 178.637 113.782 178.395 113.922C178.236 114.015 178.045 114.118 177.821 114.23L177.121 114.524L176.463 114.804C175.819 115.084 175.338 115.378 175.021 115.686C174.713 115.985 174.493 116.377 174.363 116.862C174.661 116.461 175.053 116.157 175.539 115.952C176.024 115.737 176.514 115.63 177.009 115.63C177.942 115.63 178.712 115.938 179.319 116.554C179.935 117.161 180.243 117.94 180.243 118.892C180.243 119.835 179.916 120.619 179.263 121.244C178.619 121.86 177.802 122.168 176.813 122.168ZM174.993 120.558C175.478 121.015 176.085 121.244 176.813 121.244C177.541 121.244 178.138 121.025 178.605 120.586C179.081 120.138 179.319 119.573 179.319 118.892C179.319 118.201 179.095 117.637 178.647 117.198C178.208 116.75 177.62 116.526 176.883 116.526C176.22 116.526 175.618 116.736 175.077 117.156C174.535 117.557 174.265 118.108 174.265 118.808C174.265 119.517 174.507 120.101 174.993 120.558ZM187.514 121.118C186.795 121.818 185.927 122.168 184.91 122.168C183.874 122.168 183.001 121.818 182.292 121.118C181.583 120.409 181.228 119.536 181.228 118.5C181.228 117.464 181.583 116.596 182.292 115.896C183.001 115.187 183.874 114.832 184.91 114.832C185.937 114.832 186.805 115.187 187.514 115.896C188.233 116.596 188.592 117.464 188.592 118.5C188.592 119.527 188.233 120.399 187.514 121.118ZM182.95 120.474C183.482 121.006 184.135 121.272 184.91 121.272C185.685 121.272 186.338 121.006 186.87 120.474C187.402 119.923 187.668 119.265 187.668 118.5C187.668 117.725 187.402 117.072 186.87 116.54C186.338 115.999 185.685 115.728 184.91 115.728C184.135 115.728 183.482 115.999 182.95 116.54C182.418 117.072 182.152 117.725 182.152 118.5C182.152 119.265 182.418 119.923 182.95 120.474ZM197.25 118.402C198.062 118.71 198.468 119.27 198.468 120.082C198.468 120.67 198.24 121.165 197.782 121.566C197.344 121.967 196.7 122.168 195.85 122.168C194.432 122.168 193.508 121.608 193.078 120.488L193.862 120.026C194.161 120.857 194.824 121.272 195.85 121.272C196.382 121.272 196.798 121.16 197.096 120.936C197.395 120.703 197.544 120.399 197.544 120.026C197.544 119.69 197.423 119.424 197.18 119.228C196.938 119.023 196.611 118.92 196.2 118.92H195.178V118.024H195.92C196.322 118.024 196.634 117.926 196.858 117.73C197.092 117.525 197.208 117.245 197.208 116.89C197.208 116.554 197.068 116.279 196.788 116.064C196.518 115.84 196.158 115.728 195.71 115.728C194.842 115.728 194.259 116.078 193.96 116.778L193.19 116.33C193.657 115.331 194.497 114.832 195.71 114.832C196.457 114.832 197.045 115.028 197.474 115.42C197.913 115.803 198.132 116.274 198.132 116.834C198.132 117.553 197.838 118.075 197.25 118.402ZM205.893 116.372V115H206.817V122H205.893V120.628C205.249 121.655 204.306 122.168 203.065 122.168C202.066 122.168 201.212 121.813 200.503 121.104C199.803 120.395 199.453 119.527 199.453 118.5C199.453 117.473 199.803 116.605 200.503 115.896C201.212 115.187 202.066 114.832 203.065 114.832C204.306 114.832 205.249 115.345 205.893 116.372ZM201.175 120.474C201.707 121.006 202.36 121.272 203.135 121.272C203.909 121.272 204.563 121.006 205.095 120.474C205.627 119.923 205.893 119.265 205.893 118.5C205.893 117.725 205.627 117.072 205.095 116.54C204.563 115.999 203.909 115.728 203.135 115.728C202.36 115.728 201.707 115.999 201.175 116.54C200.643 117.072 200.377 117.725 200.377 118.5C200.377 119.265 200.643 119.923 201.175 120.474ZM218.139 121.118C217.42 121.818 216.552 122.168 215.535 122.168C214.499 122.168 213.626 121.818 212.917 121.118C212.208 120.409 211.853 119.536 211.853 118.5C211.853 117.464 212.208 116.596 212.917 115.896C213.626 115.187 214.499 114.832 215.535 114.832C216.562 114.832 217.43 115.187 218.139 115.896C218.858 116.596 219.217 117.464 219.217 118.5C219.217 119.527 218.858 120.399 218.139 121.118ZM213.575 120.474C214.107 121.006 214.76 121.272 215.535 121.272C216.31 121.272 216.963 121.006 217.495 120.474C218.027 119.923 218.293 119.265 218.293 118.5C218.293 117.725 218.027 117.072 217.495 116.54C216.963 115.999 216.31 115.728 215.535 115.728C214.76 115.728 214.107 115.999 213.575 116.54C213.043 117.072 212.777 117.725 212.777 118.5C212.777 119.265 213.043 119.923 213.575 120.474ZM219.65 115H225.53V115.896H223.052V122H222.128V115.896H219.65V115ZM229.994 118.402C230.806 118.71 231.212 119.27 231.212 120.082C231.212 120.67 230.984 121.165 230.526 121.566C230.088 121.967 229.444 122.168 228.594 122.168C227.176 122.168 226.252 121.608 225.822 120.488L226.606 120.026C226.905 120.857 227.568 121.272 228.594 121.272C229.126 121.272 229.542 121.16 229.84 120.936C230.139 120.703 230.288 120.399 230.288 120.026C230.288 119.69 230.167 119.424 229.924 119.228C229.682 119.023 229.355 118.92 228.944 118.92H227.922V118.024H228.664C229.066 118.024 229.378 117.926 229.602 117.73C229.836 117.525 229.952 117.245 229.952 116.89C229.952 116.554 229.812 116.279 229.532 116.064C229.262 115.84 228.902 115.728 228.454 115.728C227.586 115.728 227.003 116.078 226.704 116.778L225.934 116.33C226.401 115.331 227.241 114.832 228.454 114.832C229.201 114.832 229.789 115.028 230.218 115.42C230.657 115.803 230.876 116.274 230.876 116.834C230.876 117.553 230.582 118.075 229.994 118.402ZM233.541 117.66H235.459C236.103 117.66 236.653 117.865 237.111 118.276C237.568 118.677 237.797 119.195 237.797 119.83C237.797 120.474 237.568 120.997 237.111 121.398C236.672 121.799 236.121 122 235.459 122H232.617V115H233.541V117.66ZM238.777 122V115H239.701V122H238.777ZM233.541 121.104H235.459C235.86 121.104 236.196 120.987 236.467 120.754C236.737 120.511 236.873 120.203 236.873 119.83C236.873 119.457 236.737 119.153 236.467 118.92C236.196 118.677 235.86 118.556 235.459 118.556H233.541V121.104ZM246.12 118.402C246.885 118.682 247.268 119.228 247.268 120.04C247.268 120.619 247.072 121.09 246.68 121.454C246.297 121.818 245.76 122 245.07 122H241.668V115H244.79C245.462 115 245.984 115.173 246.358 115.518C246.74 115.863 246.932 116.316 246.932 116.876C246.932 117.576 246.661 118.085 246.12 118.402ZM244.79 115.896H242.592V118.024H244.79C245.602 118.024 246.008 117.66 246.008 116.932C246.008 116.605 245.9 116.353 245.686 116.176C245.48 115.989 245.182 115.896 244.79 115.896ZM242.592 121.104H245.07C245.48 121.104 245.793 121.006 246.008 120.81C246.232 120.614 246.344 120.339 246.344 119.984C246.344 119.648 246.232 119.387 246.008 119.2C245.793 119.013 245.48 118.92 245.07 118.92H242.592V121.104ZM258.034 121.118C257.315 121.818 256.447 122.168 255.43 122.168C254.394 122.168 253.521 121.818 252.812 121.118C252.102 120.409 251.748 119.536 251.748 118.5C251.748 117.464 252.102 116.596 252.812 115.896C253.521 115.187 254.394 114.832 255.43 114.832C256.456 114.832 257.324 115.187 258.034 115.896C258.752 116.596 259.112 117.464 259.112 118.5C259.112 119.527 258.752 120.399 258.034 121.118ZM253.47 120.474C254.002 121.006 254.655 121.272 255.43 121.272C256.204 121.272 256.858 121.006 257.39 120.474C257.922 119.923 258.188 119.265 258.188 118.5C258.188 117.725 257.922 117.072 257.39 116.54C256.858 115.999 256.204 115.728 255.43 115.728C254.655 115.728 254.002 115.999 253.47 116.54C252.938 117.072 252.672 117.725 252.672 118.5C252.672 119.265 252.938 119.923 253.47 120.474ZM269.114 118.052V115H270.038V122H269.114V118.948H265.082V122H264.158V115H265.082V118.052H269.114ZM278.012 116.372V115H278.936V122H278.012V120.628C277.368 121.655 276.425 122.168 275.184 122.168C274.185 122.168 273.331 121.813 272.622 121.104C271.922 120.395 271.572 119.527 271.572 118.5C271.572 117.473 271.922 116.605 272.622 115.896C273.331 115.187 274.185 114.832 275.184 114.832C276.425 114.832 277.368 115.345 278.012 116.372ZM273.294 120.474C273.826 121.006 274.479 121.272 275.254 121.272C276.028 121.272 276.682 121.006 277.214 120.474C277.746 119.923 278.012 119.265 278.012 118.5C278.012 117.725 277.746 117.072 277.214 116.54C276.682 115.999 276.028 115.728 275.254 115.728C274.479 115.728 273.826 115.999 273.294 116.54C272.762 117.072 272.496 117.725 272.496 118.5C272.496 119.265 272.762 119.923 273.294 120.474ZM289.348 121.104V115H290.272V122H280.892V115H281.816V121.104H285.12V115H286.044V121.104H289.348ZM295.46 114.832C296.505 114.832 297.341 115.201 297.966 115.938C298.61 116.666 298.932 117.529 298.932 118.528C298.932 118.575 298.923 118.719 298.904 118.962H292.758C292.851 119.662 293.15 120.222 293.654 120.642C294.158 121.062 294.788 121.272 295.544 121.272C296.608 121.272 297.359 120.875 297.798 120.082L298.61 120.558C298.302 121.062 297.877 121.459 297.336 121.748C296.804 122.028 296.202 122.168 295.53 122.168C294.429 122.168 293.533 121.823 292.842 121.132C292.151 120.441 291.806 119.564 291.806 118.5C291.806 117.445 292.147 116.573 292.828 115.882C293.509 115.182 294.387 114.832 295.46 114.832ZM295.46 115.728C294.732 115.728 294.121 115.943 293.626 116.372C293.141 116.801 292.851 117.366 292.758 118.066H297.98C297.877 117.319 297.593 116.745 297.126 116.344C296.641 115.933 296.085 115.728 295.46 115.728ZM305.162 113.88H301.522V113.068H305.162V113.88ZM301.326 120.39L305.498 115H306.282V122H305.358V116.61L301.186 122H300.402V115H301.326V120.39ZM132.884 140.36L136.636 144H135.404L131.904 140.626V144H130.98V137H131.904V140.094L135.236 137H136.496L132.884 140.36ZM143.067 143.118C142.348 143.818 141.48 144.168 140.463 144.168C139.427 144.168 138.554 143.818 137.845 143.118C137.135 142.409 136.781 141.536 136.781 140.5C136.781 139.464 137.135 138.596 137.845 137.896C138.554 137.187 139.427 136.832 140.463 136.832C141.489 136.832 142.357 137.187 143.067 137.896C143.785 138.596 144.145 139.464 144.145 140.5C144.145 141.527 143.785 142.399 143.067 143.118ZM138.503 142.474C139.035 143.006 139.688 143.272 140.463 143.272C141.237 143.272 141.891 143.006 142.423 142.474C142.955 141.923 143.221 141.265 143.221 140.5C143.221 139.725 142.955 139.072 142.423 138.54C141.891 137.999 141.237 137.728 140.463 137.728C139.688 137.728 139.035 137.999 138.503 138.54C137.971 139.072 137.705 139.725 137.705 140.5C137.705 141.265 137.971 141.923 138.503 142.474ZM151.487 137H152.551V144H151.627V138.414L149.177 142.39H149.065L146.615 138.414V144H145.691V137H146.755L149.121 140.836L151.487 137ZM154.509 137H160.389V144H159.465V137.896H155.433V144H154.509V137ZM168.363 138.372V137H169.287V144H168.363V142.628C167.719 143.655 166.777 144.168 165.535 144.168C164.537 144.168 163.683 143.813 162.973 143.104C162.273 142.395 161.923 141.527 161.923 140.5C161.923 139.473 162.273 138.605 162.973 137.896C163.683 137.187 164.537 136.832 165.535 136.832C166.777 136.832 167.719 137.345 168.363 138.372ZM163.645 142.474C164.177 143.006 164.831 143.272 165.605 143.272C166.38 143.272 167.033 143.006 167.565 142.474C168.097 141.923 168.363 141.265 168.363 140.5C168.363 139.725 168.097 139.072 167.565 138.54C167.033 137.999 166.38 137.728 165.605 137.728C164.831 137.728 164.177 137.999 163.645 138.54C163.113 139.072 162.847 139.725 162.847 140.5C162.847 141.265 163.113 141.923 163.645 142.474ZM176.2 140.052V137H177.124V144H176.2V140.948H172.168V144H171.244V137H172.168V140.052H176.2ZM180.002 142.39L184.174 137H184.958V144H184.034V138.61L179.862 144H179.078V137H180.002V142.39ZM187.836 142.39L192.008 137H192.792V144H191.868V138.61L187.696 144H186.912V137H187.836V142.39ZM199.646 137.63C199.646 137.845 199.571 138.027 199.422 138.176C199.272 138.325 199.09 138.4 198.876 138.4C198.661 138.4 198.479 138.325 198.33 138.176C198.18 138.027 198.106 137.845 198.106 137.63C198.106 137.415 198.18 137.233 198.33 137.084C198.479 136.935 198.661 136.86 198.876 136.86C199.09 136.86 199.272 136.935 199.422 137.084C199.571 137.233 199.646 137.415 199.646 137.63ZM199.646 143.37C199.646 143.585 199.571 143.767 199.422 143.916C199.272 144.065 199.09 144.14 198.876 144.14C198.661 144.14 198.479 144.065 198.33 143.916C198.18 143.767 198.106 143.585 198.106 143.37C198.106 143.155 198.18 142.973 198.33 142.824C198.479 142.675 198.661 142.6 198.876 142.6C199.09 142.6 199.272 142.675 199.422 142.824C199.571 142.973 199.646 143.155 199.646 143.37ZM201.836 145.4H200.912C201.939 143.347 202.452 141.247 202.452 139.1C202.452 136.953 201.939 134.853 200.912 132.8H201.836C202.863 134.853 203.376 136.953 203.376 139.1C203.376 141.247 202.863 143.347 201.836 145.4Z" fill="#333333"/>
</g>
<path fill-rule="evenodd" clip-rule="evenodd" d="M58.9997 68.64C77.9541 68.64 93.3197 53.2744 93.3197 34.32C93.3197 15.3656 77.9541 0 58.9997 0C40.0453 0 24.6797 15.3656 24.6797 34.32C24.6797 44.9926 29.5513 54.5274 37.192 60.822C37.2042 60.832 37.1934 60.8515 37.1784 60.8464V60.8464C37.1693 60.8433 37.1597 60.8501 37.1597 60.8598V71.5042C37.1597 74.4834 40.2999 76.4171 42.9603 75.076L54.9717 69.0212C55.6351 68.6867 56.3783 68.5494 57.1202 68.5894C57.7425 68.623 58.3691 68.64 58.9997 68.64Z" fill="#7DED61"/>
<path fill-rule="evenodd" clip-rule="evenodd" d="M70.3007 24.3463C71.3598 25.1584 71.562 26.6744 70.7526 27.7356L58.7423 43.4829C58.3188 44.0381 57.6769 44.3832 56.9812 44.4295C56.2856 44.4757 55.6039 44.2188 55.1109 43.7245L47.4879 36.0814C46.5452 35.1362 46.5452 33.6063 47.4879 32.6611V32.6611C48.4342 31.7124 49.971 31.7124 50.9172 32.6611L56.5779 38.3367L66.9028 24.7994C67.7151 23.7344 69.2378 23.5313 70.3007 24.3463V24.3463Z" fill="white"/>
</g>
<defs>
<clipPath id="clip0_260_10">
<rect width="438" height="174" fill="white"/>
</clipPath>
<clipPath id="clip1_260_10">
<rect y="42" width="438" height="132" rx="32" fill="white"/>
</clipPath>
</defs>
</svg>
