<svg width="20" height="20" viewBox="0 0 20 20" fill="none" xmlns="http://www.w3.org/2000/svg">
<path fill-rule="evenodd" clip-rule="evenodd" d="M19.75 9.75C19.75 15.1348 15.3848 19.5 10 19.5C4.61522 19.5 0.25 15.1348 0.25 9.75C0.25 4.36522 4.61522 0 10 0C15.3848 0 19.75 4.36522 19.75 9.75ZM10.3482 7.44812C9.39992 7.84257 7.50459 8.65896 4.66226 9.89732C4.20071 10.0809 3.95893 10.2604 3.93692 10.436C3.89973 10.7327 4.27131 10.8495 4.7773 11.0087C4.84613 11.0303 4.91744 11.0527 4.99055 11.0765C5.48837 11.2383 6.15802 11.4276 6.50615 11.4351C6.82193 11.442 7.17438 11.3118 7.5635 11.0446C10.2192 9.25193 11.59 8.34584 11.6761 8.3263C11.7368 8.31252 11.821 8.2952 11.878 8.34587C11.935 8.39654 11.9294 8.4925 11.9233 8.51825C11.8865 8.67517 10.4279 10.0312 9.67313 10.7329C9.43783 10.9517 9.27091 11.1069 9.23679 11.1423C9.16036 11.2217 9.08246 11.2968 9.00759 11.369C8.5451 11.8148 8.19828 12.1492 9.02679 12.6951C9.42494 12.9575 9.74353 13.1745 10.0614 13.3909C10.4085 13.6273 10.7547 13.8631 11.2027 14.1567C11.3168 14.2315 11.4258 14.3092 11.5319 14.3849C11.9359 14.6729 12.2988 14.9316 12.7472 14.8904C13.0077 14.8664 13.2769 14.6214 13.4135 13.8908C13.7365 12.164 14.3714 8.42274 14.5182 6.88103C14.531 6.74596 14.5148 6.57309 14.5019 6.49721C14.4889 6.42133 14.4617 6.31321 14.3631 6.23317C14.2463 6.13838 14.0659 6.11839 13.9853 6.11981C13.6186 6.12627 13.0559 6.32191 10.3482 7.44812Z" fill="#585CC6"/>
</svg>
