<svg width="20" height="20" viewBox="0 0 20 20" fill="none" xmlns="http://www.w3.org/2000/svg">
<path d="M9.75 0C4.36516 0 0 4.36516 0 9.75C0 15.1348 4.36516 19.5 9.75 19.5C15.1348 19.5 19.5 15.1348 19.5 9.75C19.5 4.36516 15.1348 0 9.75 0ZM13.4997 11.0002C13.4997 11.0002 14.362 11.8513 14.5742 12.2464C14.5803 12.2545 14.5834 12.2627 14.5854 12.2667C14.6717 12.412 14.692 12.5247 14.6494 12.609C14.5783 12.7491 14.3345 12.8182 14.2513 12.8243H12.7278C12.6222 12.8243 12.4008 12.7969 12.1327 12.612C11.9265 12.4678 11.7234 12.2312 11.5253 12.0006C11.2298 11.6573 10.9738 11.3608 10.7159 11.3608C10.6831 11.3607 10.6505 11.3659 10.6194 11.376C10.4244 11.439 10.1745 11.7173 10.1745 12.4587C10.1745 12.6902 9.99172 12.8233 9.86273 12.8233H9.165C8.92734 12.8233 7.6893 12.74 6.59242 11.5832C5.24977 10.1664 4.04117 7.32469 4.03102 7.29828C3.95484 7.11445 4.11227 7.01594 4.28391 7.01594H5.82258C6.02773 7.01594 6.09477 7.14086 6.14148 7.25156C6.19633 7.38055 6.39742 7.89344 6.7275 8.47031C7.26273 9.41078 7.59078 9.79266 7.85383 9.79266C7.90315 9.79208 7.9516 9.77953 7.995 9.75609C8.33828 9.56516 8.2743 8.34133 8.25906 8.08742C8.25906 8.03969 8.25805 7.54 8.08234 7.30031C7.95641 7.12664 7.74211 7.06063 7.61211 7.03625C7.66473 6.96364 7.73405 6.90477 7.81422 6.86461C8.04984 6.7468 8.47438 6.72953 8.89586 6.72953H9.13047C9.5875 6.73563 9.70531 6.76508 9.87086 6.80672C10.206 6.88695 10.2131 7.10328 10.1837 7.84367C10.1745 8.05391 10.1654 8.29156 10.1654 8.57188C10.1654 8.63281 10.1623 8.69781 10.1623 8.76688C10.1522 9.14367 10.14 9.57125 10.4061 9.74695C10.4408 9.76872 10.4809 9.78033 10.5219 9.78047C10.6143 9.78047 10.8926 9.78047 11.6462 8.48758C11.8786 8.07143 12.0805 7.639 12.2505 7.19367C12.2657 7.16727 12.3104 7.08602 12.3632 7.05453C12.4022 7.03466 12.4454 7.02455 12.4891 7.02508H14.298C14.495 7.02508 14.6301 7.05453 14.6555 7.1307C14.7002 7.25156 14.6473 7.62023 13.8216 8.73844L13.453 9.22492C12.7045 10.206 12.7045 10.2558 13.4997 11.0002Z" fill="#585CC6"/>
</svg>
